<svg width="82" height="83" xmlns="http://www.w3.org/2000/svg" xmlns:xlink="http://www.w3.org/1999/xlink" xml:space="preserve" overflow="hidden"><defs><filter id="fx0" x="-10%" y="-10%" width="120%" height="120%" filterUnits="userSpaceOnUse" primitiveUnits="userSpaceOnUse"><feComponentTransfer color-interpolation-filters="sRGB"><feFuncR type="discrete" tableValues="0 0"/><feFuncG type="discrete" tableValues="0 0"/><feFuncB type="discrete" tableValues="0 0"/><feFuncA type="linear" slope="0.4" intercept="0"/></feComponentTransfer><feGaussianBlur stdDeviation="1.77778 1.77778"/></filter><clipPath id="clip1"><rect x="730" y="21" width="82" height="83"/></clipPath><clipPath id="clip2"><rect x="15" y="5" width="62" height="80"/></clipPath></defs><g clip-path="url(#clip1)" transform="translate(-730 -21)"><g clip-path="url(#clip2)" filter="url(#fx0)" transform="translate(729 20)"><g><g><g><g><path d="M54.7371 48.8797 39.9583 42.3974C38.5987 41.8326 37.7229 40.4935 37.7504 39.0214L37.7504 8.75C37.7504 7.54184 36.7711 6.5625 35.5629 6.5625L19.5942 6.5625C18.386 6.5625 17.4067 7.54184 17.4067 8.75L17.4067 49.5979C17.3983 52.7903 19.2903 55.6814 22.2192 56.9516L46.8708 67.6769C48.1496 68.2628 49.5402 68.5646 50.9469 68.5614 55.1965 68.5803 59.004 65.9391 60.4749 61.9522 62.4094 56.9479 59.8369 51.0854 54.7371 48.8797ZM39.3903 43.7412 54.1581 50.2177C54.6941 50.4497 55.2069 50.7322 55.6894 51.0614 54.6026 51.3139 53.5544 51.7107 52.5729 52.2411 48.6542 54.4343 46.2664 58.6117 46.3655 63.1014 46.3765 64.0687 46.4677 65.0336 46.6382 65.9859L29.9352 58.7198 31.9083 50.2279C32.1592 49.1945 31.9198 48.1031 31.2594 47.2697 30.5943 46.4244 29.5765 45.9328 28.5009 45.9375L18.8614 45.9375 18.8614 18.9583 36.2884 18.9583 36.2884 39.0214C36.2585 41.0813 37.4876 42.9514 39.3903 43.7412ZM19.5913 8.02083 35.56 8.02083C35.9627 8.02083 36.2892 8.34728 36.2892 8.75L36.2892 17.5 18.8621 17.5 18.8621 8.75C18.8621 8.34728 19.1885 8.02083 19.5913 8.02083ZM22.7938 55.6128C20.3995 54.573 18.8535 52.2083 18.8614 49.5979L18.8614 47.3958 28.5009 47.3958C29.1297 47.3924 29.725 47.6789 30.1146 48.1724 30.4988 48.6569 30.6372 49.292 30.4894 49.8925L28.5753 58.1284ZM59.1106 61.4381C57.8493 64.8549 54.5861 67.1185 50.944 67.103 50.0371 67.1051 49.1361 66.9573 48.2774 66.6655 47.976 65.493 47.8226 64.2873 47.8209 63.0766 47.7319 59.1255 49.8316 55.4481 53.2795 53.5165 54.4739 52.8659 55.7835 52.4538 57.1353 52.3031 59.501 54.712 60.2698 58.2671 59.1106 61.4381Z" stroke="#0F9ED5" stroke-width="0.982457" fill="#FFFFFF" transform="matrix(1 0 0 1.01429 6.82843 7.17157)"/></g></g></g></g></g><g><g><g><path d="M54.7371 48.8797 39.9583 42.3974C38.5987 41.8326 37.7229 40.4935 37.7504 39.0214L37.7504 8.75C37.7504 7.54184 36.7711 6.5625 35.5629 6.5625L19.5942 6.5625C18.386 6.5625 17.4067 7.54184 17.4067 8.75L17.4067 49.5979C17.3983 52.7903 19.2903 55.6814 22.2192 56.9516L46.8708 67.6769C48.1496 68.2628 49.5402 68.5646 50.9469 68.5614 55.1965 68.5803 59.004 65.9391 60.4749 61.9522 62.4094 56.9479 59.8369 51.0854 54.7371 48.8797ZM39.3903 43.7412 54.1581 50.2177C54.6941 50.4497 55.2069 50.7322 55.6894 51.0614 54.6026 51.3139 53.5544 51.7107 52.5729 52.2411 48.6542 54.4343 46.2664 58.6117 46.3655 63.1014 46.3765 64.0687 46.4677 65.0336 46.6382 65.9859L29.9352 58.7198 31.9083 50.2279C32.1592 49.1945 31.9198 48.1031 31.2594 47.2697 30.5943 46.4244 29.5765 45.9328 28.5009 45.9375L18.8614 45.9375 18.8614 18.9583 36.2884 18.9583 36.2884 39.0214C36.2585 41.0813 37.4876 42.9514 39.3903 43.7412ZM19.5913 8.02083 35.56 8.02083C35.9627 8.02083 36.2892 8.34728 36.2892 8.75L36.2892 17.5 18.8621 17.5 18.8621 8.75C18.8621 8.34728 19.1885 8.02083 19.5913 8.02083ZM22.7938 55.6128C20.3995 54.573 18.8535 52.2083 18.8614 49.5979L18.8614 47.3958 28.5009 47.3958C29.1297 47.3924 29.725 47.6789 30.1146 48.1724 30.4988 48.6569 30.6372 49.292 30.4894 49.8925L28.5753 58.1284ZM59.1106 61.4381C57.8493 64.8549 54.5861 67.1185 50.944 67.103 50.0371 67.1051 49.1361 66.9573 48.2774 66.6655 47.976 65.493 47.8226 64.2873 47.8209 63.0766 47.7319 59.1255 49.8316 55.4481 53.2795 53.5165 54.4739 52.8659 55.7835 52.4538 57.1353 52.3031 59.501 54.712 60.2698 58.2671 59.1106 61.4381Z" stroke="#0F9ED5" stroke-width="0.982457" fill="#FFFFFF" transform="matrix(1 0 0 1.01429 733 30)"/></g></g></g></g></svg>